<?xml version="1.0" encoding="UTF-8" ?>
<!DOCTYPE svg PUBLIC "-//W3C//DTD SVG 1.1//EN" "http://www.w3.org/Graphics/SVG/1.1/DTD/svg11.dtd">
<svg width="672pt" height="127pt" viewBox="0 0 672 127" version="1.1" xmlns="http://www.w3.org/2000/svg">
<g id="#000000f9">
<path fill="#000000" opacity="0.98" d=" M 16.72 13.72 C 23.68 6.75 33.13 2.61 42.83 1.38 C 56.39 -0.38 70.85 1.94 82.37 9.60 C 90.03 14.75 94.65 23.27 97.05 31.99 C 88.24 34.19 79.45 36.49 70.61 38.58 C 68.89 36.44 68.25 33.56 66.39 31.47 C 63.04 27.07 57.42 24.97 51.99 25.02 C 47.25 25.01 41.82 25.69 38.55 29.53 C 35.59 32.71 35.27 38.36 38.86 41.22 C 43.73 45.30 50.31 46.06 56.24 47.72 C 68.14 50.89 81.19 52.85 90.74 61.29 C 105.15 75.11 104.67 101.36 89.47 114.44 C 80.25 122.71 67.80 126.27 55.65 127.00 L 46.57 127.00 C 35.87 125.92 24.99 123.19 16.17 116.80 C 7.68 110.52 2.81 100.59 0.13 90.61 C 9.18 88.83 18.22 86.98 27.28 85.20 C 28.44 89.42 30.14 93.69 33.47 96.68 C 38.92 101.80 46.82 102.97 54.02 102.78 C 59.49 102.62 65.56 101.65 69.42 97.39 C 73.44 93.47 72.50 86.08 68.03 82.91 C 63.19 79.96 57.42 79.29 52.09 77.65 C 41.40 74.45 29.87 72.90 20.39 66.65 C 4.12 54.72 2.36 27.83 16.72 13.72 Z" />
<path fill="#000000" opacity="0.98" d=" M 515.16 2.40 C 529.19 -1.03 545.24 0.93 556.63 10.32 C 568.12 19.50 572.81 34.36 574.93 48.38 C 566.28 49.24 557.65 50.33 548.99 51.05 C 547.34 43.84 545.27 36.36 540.35 30.64 C 533.84 22.33 519.83 23.61 514.33 32.41 C 509.43 39.16 508.09 47.72 507.44 55.84 C 506.93 65.46 507.00 75.28 509.53 84.64 C 511.22 90.71 514.51 96.65 519.87 100.19 C 525.86 104.15 534.43 103.59 539.78 98.75 C 545.96 93.59 547.83 85.26 548.62 77.62 C 557.34 78.58 566.06 79.57 574.79 80.53 C 573.43 93.56 568.83 106.92 558.84 115.86 C 551.46 122.81 541.44 126.09 531.50 127.00 L 522.81 127.00 C 514.59 126.00 506.22 123.70 499.77 118.26 C 486.85 107.80 480.60 91.24 478.68 75.14 C 476.80 56.78 478.97 37.06 489.40 21.38 C 495.26 12.17 504.47 4.98 515.16 2.40 Z" />
<path fill="#000000" opacity="0.98" d=" M 265.00 1.81 C 280.72 1.81 296.45 1.79 312.17 1.82 C 312.20 10.88 312.19 19.94 312.18 29.00 C 305.84 29.01 299.51 28.98 293.17 29.03 C 293.21 35.95 293.18 42.88 293.19 49.80 C 303.85 49.82 314.52 49.80 325.18 49.82 C 325.19 58.21 325.19 66.60 325.18 74.98 C 314.51 75.02 303.84 74.97 293.18 75.02 C 293.17 82.64 293.26 90.26 293.12 97.88 C 299.14 97.74 305.16 97.81 311.17 97.82 C 311.20 106.88 311.19 115.94 311.18 125.00 C 295.79 125.00 280.39 125.00 265.00 125.00 C 265.00 83.94 265.00 42.88 265.00 1.81 Z" />
<path fill="#000000" opacity="0.98" d=" M 319.01 1.82 C 328.06 1.80 337.12 1.81 346.18 1.82 C 346.19 10.88 346.19 19.93 346.18 28.98 C 337.12 28.99 328.06 28.99 319.00 29.00 C 319.00 19.94 318.99 10.88 319.01 1.82 Z" />
<path fill="#000000" opacity="0.98" d=" M 387.12 1.69 C 397.04 1.69 406.96 1.65 416.88 1.62 C 412.58 20.36 408.08 39.06 403.94 57.82 C 399.16 80.36 393.99 102.83 388.89 125.31 C 378.96 125.30 369.03 125.47 359.10 125.32 C 363.76 105.55 368.28 85.75 372.90 65.97 C 377.24 44.47 382.27 23.09 387.12 1.69 Z" />
<path fill="#000000" opacity="0.98" d=" M 442.12 1.70 C 451.98 1.64 461.85 1.77 471.71 1.53 C 467.25 23.07 461.51 44.35 457.25 65.93 C 452.78 85.72 448.45 105.53 443.89 125.30 C 434.03 125.28 424.16 125.49 414.30 125.30 C 418.57 105.29 423.49 85.42 428.03 65.47 C 432.34 44.14 437.32 22.93 442.12 1.70 Z" />
<path fill="#000000" opacity="0.98" d=" M 591.00 1.82 C 618.00 1.79 645.00 1.81 672.00 1.82 L 672.00 28.98 C 654.39 29.01 636.78 28.98 619.18 29.02 C 619.20 35.95 619.18 42.88 619.19 49.80 C 629.85 49.83 640.51 49.79 651.17 49.83 C 651.19 58.21 651.19 66.60 651.18 74.98 C 640.51 75.01 629.85 74.98 619.18 75.02 C 619.17 82.63 619.24 90.25 619.13 97.86 C 636.48 97.74 653.83 97.83 671.18 97.83 C 671.19 106.87 671.18 115.92 671.18 124.97 C 644.45 125.02 617.73 124.99 591.00 125.00 C 591.00 83.94 591.00 42.88 591.00 1.82 Z" />
<path fill="#000000" opacity="0.98" d=" M 119.00 2.81 C 128.39 2.80 137.79 2.80 147.19 2.82 C 147.20 43.54 147.20 84.27 147.19 125.00 C 137.79 125.00 128.39 125.00 119.00 125.00 C 119.00 84.27 119.00 43.54 119.00 2.81 Z" />
<path fill="#000000" opacity="0.98" d=" M 172.00 2.81 C 181.39 2.80 190.79 2.80 200.18 2.81 C 200.21 35.14 200.18 67.47 200.19 99.80 C 216.52 99.82 232.85 99.79 249.18 99.82 C 249.20 108.21 249.20 116.61 249.19 125.00 C 223.46 125.00 197.73 125.00 172.00 125.00 C 172.00 84.27 172.00 43.54 172.00 2.81 Z" />
<path fill="#000000" opacity="0.98" d=" M 318.01 97.82 C 327.06 97.81 336.12 97.81 345.18 97.82 C 345.19 106.87 345.18 115.93 345.18 124.98 C 336.12 125.00 327.06 124.99 318.00 125.00 C 318.00 115.94 317.99 106.88 318.01 97.82 Z" />
</g>
<g id="#0000006b">
<path fill="#000000" opacity="0.42" d=" M 416.88 1.62 C 417.65 10.84 420.21 19.77 421.35 28.94 C 423.85 41.07 425.42 53.37 428.03 65.47 C 423.49 85.42 418.57 105.29 414.30 125.30 C 413.86 114.41 410.83 103.85 409.29 93.10 C 407.53 81.35 404.34 69.73 403.94 57.82 C 408.08 39.06 412.58 20.36 416.88 1.62 Z" />
</g>
</svg>
